<?xml version="1.0" encoding="UTF-8"?>
<svg id="Layer_1" data-name="Layer 1" xmlns="http://www.w3.org/2000/svg" version="1.1" viewBox="0 0 1920 1080">
  <defs>
    <style>
      .cls-1, .cls-2, .cls-3, .cls-4, .cls-5, .cls-6, .cls-7, .cls-8, .cls-9 {
        stroke: #000;
        stroke-miterlimit: 10;
      }

      .cls-1, .cls-5 {
        fill: #4d00a2;
      }

      .cls-1, .cls-7, .cls-8 {
        stroke-width: 6px;
      }

      .cls-2, .cls-10, .cls-3 {
        fill: #000;
      }

      .cls-2, .cls-9 {
        stroke-width: 14px;
      }

      .cls-10, .cls-11 {
        stroke-width: 0px;
      }

      .cls-3, .cls-5 {
        stroke-width: 5px;
      }

      .cls-4 {
        stroke-width: 7px;
      }

      .cls-4, .cls-6, .cls-7, .cls-9 {
        fill: none;
      }

      .cls-6 {
        stroke-width: 12px;
      }

      .cls-11, .cls-8 {
        fill: #fff;
      }
    </style>
  </defs>
  <rect class="cls-1" width="1920" height="1080"/>
  <rect class="cls-7" x="34.83" y="119.4" width="143.67" height="45.54" transform="translate(213.33 284.35) rotate(-180)"/>
  <circle class="cls-1" cx="154.65" cy="164.94" r="15.72"/>
  <circle class="cls-1" cx="60.31" cy="164.94" r="15.72"/>
  <polygon class="cls-7" points="76.03 119.4 151.4 119.4 126.46 90.67 76.03 90.67 76.03 119.4"/>
  <path class="cls-10" d="M86.82,934.72c10.42,0,22.01,5.86,32.65,16.49l4.24,4.24,4.24-4.24c9.39-9.39,19.86-14.57,29.47-14.57,9.53,0,17.59,5.17,21.04,13.5,4.78,11.53,0,26.04-12.77,38.81l-42.13,42.13-41.98-41.98c-7.6-7.6-12.83-15.76-15.13-23.62-1.94-6.62-1.81-12.91.38-18.19,3.26-7.87,10.73-12.57,19.99-12.57M86.82,928.72c-27.08,0-41.4,32.71-9.48,64.62l46.23,46.23,46.37-46.37c30.07-30.07,14.27-62.55-12.51-62.55-10.28,0-22.17,4.78-33.71,16.32-12.91-12.91-25.94-18.25-36.89-18.25h0Z"/>
  <g>
    <ellipse class="cls-5" cx="927.95" cy="387.23" rx="59.36" ry="58.25"/>
    <g>
      <path class="cls-10" d="M927.94,348.27c31.35,0,56.85,20.76,56.85,46.28s-25.5,46.28-56.85,46.28-56.85-20.76-56.85-46.28,25.5-46.28,56.85-46.28M927.94,344.27c-33.61,0-60.85,22.51-60.85,50.28s27.25,50.28,60.85,50.28,60.85-22.51,60.85-50.28-27.25-50.28-60.85-50.28h0Z"/>
      <path class="cls-8" d="M927.94,329.77v115.03"/>
      <path class="cls-10" d="M927.94,339.57c26.94,0,48.85,21.4,48.85,47.71s-21.92,47.71-48.85,47.71-48.85-21.4-48.85-47.71,21.92-47.71,48.85-47.71M927.94,327.57c-33.61,0-60.85,26.73-60.85,59.71s27.25,59.71,60.85,59.71,60.85-26.73,60.85-59.71-27.25-59.71-60.85-59.71h0Z"/>
    </g>
    <g>
      <path class="cls-10" d="M901.5,337.07c6.14,3.9,10.46,10.42,11.51,17.6s-1.65,15.35-6.92,20.76c-2.95,3.03-6.43,5.47-9.74,8.08s-6.46,5.7-9.08,9.2c-5.09,6.79-8.42,15.43-8.49,23.96-.07,9.52,5.18,19.36,14.93,21.84,3.74.95,5.34-4.83,1.6-5.79-7.45-1.89-10.78-9.63-10.5-16.95.3-7.85,3.86-15.75,8.97-21.65,5.46-6.31,13.27-10.09,18.48-16.62s7.81-15.18,6.66-23.64c-1.23-9.04-6.71-17.12-14.38-21.99-3.27-2.07-6.28,3.12-3.03,5.18h0Z"/>
      <path class="cls-10" d="M951.35,331.59c-6.78,4.3-11.9,11.13-13.82,18.96-1.98,8.09-.44,16.97,4.11,23.95,4.71,7.22,12.41,11.14,18.39,17.1,5.64,5.62,9.54,13.02,10.77,20.9s-1.65,17.76-10.22,19.94c-3.74.95-2.16,6.74,1.6,5.79,8.53-2.17,13.75-10.12,14.74-18.51,1.01-8.55-1.97-17.64-6.56-24.79-2.27-3.54-5.04-6.78-8.21-9.55s-6.82-5.24-10.06-8.08c-3.03-2.66-5.49-5.65-7.2-9.32-1.57-3.38-2.29-7.14-2.22-10.84.16-8.22,4.77-15.97,11.71-20.37,3.25-2.06.25-7.26-3.03-5.18h0Z"/>
    </g>
  </g>
  <rect class="cls-3" x="658.5" y="610.5" width="92.69" height="125.5"/>
  <ellipse class="cls-5" cx="705.05" cy="640.39" rx="17.44" ry="17.97"/>
  <ellipse class="cls-5" cx="704.95" cy="700.48" rx="28.08" ry="28.93"/>
  <g>
    <ellipse class="cls-3" cx="705.02" cy="640.35" rx="6.33" ry="6.52"/>
    <ellipse class="cls-3" cx="704.98" cy="700.51" rx="9.26" ry="9.54"/>
  </g>
  <g>
    <ellipse class="cls-3" cx="760.5" cy="582.78" rx="9" ry="11.37"/>
    <ellipse class="cls-3" cx="795.66" cy="575.65" rx="10.47" ry="13.22"/>
    <rect class="cls-3" x="764.69" y="542.33" width="4.81" height="40.45"/>
    <rect class="cls-3" x="800.06" y="532.28" width="4.81" height="40.45"/>
    <polygon class="cls-3" points="807 534.69 766.44 549.52 763.32 535.89 803.88 521.06 807 534.69"/>
  </g>
  <g>
    <g>
      <g>
        <path class="cls-10" d="M1234.69,561.09c-27.46,0-49.88-21.97-50.6-49.25h101.2c-.73,27.28-23.15,49.25-50.6,49.25h0Z"/>
        <path class="cls-10" d="M1283.52,513.53c-1.59,25.55-22.88,45.86-48.83,45.86s-47.24-20.31-48.83-45.86h97.66M1286.99,510.14h-104.62c0,.11,0,.21,0,.32,0,28.9,23.42,52.32,52.32,52.32s52.32-23.42,52.32-52.32c0-.11,0-.21,0-.32h0Z"/>
      </g>
      <g>
        <path class="cls-10" d="M1339.32,561.09c-27.46,0-49.88-21.97-50.6-49.25h101.2c-.73,27.28-23.15,49.25-50.6,49.25h0Z"/>
        <path class="cls-10" d="M1388.15,513.53c-1.59,25.55-22.88,45.86-48.83,45.86s-47.24-20.31-48.83-45.86h97.66M1391.63,510.14h-104.62c0,.11,0,.21,0,.32,0,28.9,23.42,52.32,52.32,52.32s52.32-23.42,52.32-52.32c0-.11,0-.21,0-.32h0Z"/>
      </g>
    </g>
    <line class="cls-9" x1="1383.07" y1="519.67" x2="1432" y2="447.97"/>
    <line class="cls-9" x1="1185.51" y1="513.69" x2="1234.44" y2="442"/>
  </g>
  <g>
    <ellipse class="cls-2" cx="123.47" cy="594.24" rx="56.47" ry="32.35"/>
    <ellipse class="cls-9" cx="202.17" cy="574.47" rx="58.51" ry="29.47"/>
    <polygon class="cls-2" points="67.19 643 101.25 623.58 82.63 609.93 67.19 643"/>
    <polygon class="cls-2" points="270.47 620.62 236.42 601.19 255.03 587.55 270.47 620.62"/>
    <ellipse class="cls-5" cx="98.09" cy="594.39" rx="10.09" ry="9.16"/>
    <ellipse class="cls-5" cx="123.71" cy="594.39" rx="10.09" ry="9.16"/>
    <ellipse class="cls-5" cx="149.32" cy="594.39" rx="10.09" ry="9.16"/>
  </g>
  <g>
    <g>
      <path class="cls-10" d="M1509.05,737.95c-20.25-2.25-36.05-19.46-36.05-40.3s15.8-38.05,36.05-40.3v80.6Z"/>
      <path class="cls-10" d="M1504.55,662.74v69.82c-15.54-4.01-27.05-18.14-27.05-34.91s11.51-30.9,27.05-34.91M1513.55,652.61c-24.88,0-45.05,20.17-45.05,45.05s20.17,45.05,45.05,45.05v-90.09h0Z"/>
    </g>
    <g>
      <path class="cls-10" d="M1602.36,657.35c20.25,2.25,36.05,19.46,36.05,40.3s-15.8,38.05-36.05,40.3v-80.6Z"/>
      <path class="cls-10" d="M1606.86,662.74c15.54,4.01,27.05,18.14,27.05,34.91s-11.51,30.9-27.05,34.91v-69.82M1597.86,652.61v90.09c24.88,0,45.05-20.17,45.05-45.05s-20.17-45.05-45.05-45.05h0Z"/>
    </g>
    <g>
      <rect class="cls-11" x="1518.05" y="653.25" width="5.94" height="90.25"/>
      <path class="cls-10" d="M1524.61,648.75h-7.19c-2.13,0-3.88,1.74-3.88,3.88v91.5c0,2.13,1.74,3.88,3.88,3.88h7.19c2.13,0,3.88-1.74,3.88-3.88v-91.5c0-2.13-1.74-3.88-3.88-3.88h0Z"/>
    </g>
    <g>
      <rect class="cls-11" x="1589.83" y="653.25" width="5.94" height="90.25"/>
      <path class="cls-10" d="M1596.39,648.75h-7.19c-2.13,0-3.88,1.74-3.88,3.88v91.5c0,2.13,1.74,3.88,3.88,3.88h7.19c2.13,0,3.88-1.74,3.88-3.88v-91.5c0-2.13-1.74-3.88-3.88-3.88h0Z"/>
    </g>
    <path class="cls-6" d="M1490.66,666.34c0-96.89,129.6-96.89,129.6,0"/>
  </g>
  <g>
    <rect class="cls-4" x="790" y="874" width="91.49" height="142" rx="12" ry="12"/>
    <rect class="cls-4" x="801.18" y="893.87" width="68.72" height="68.72" rx="12" ry="12"/>
    <circle class="cls-4" cx="835.54" cy="992.82" r="16.15"/>
  </g>
  <g>
    <rect class="cls-7" x="1425" y="963" width="146.24" height="66"/>
    <ellipse class="cls-7" cx="1497.95" cy="996" rx="37.17" ry="20.15"/>
    <line class="cls-7" x1="1433.34" y1="996" x2="1455.22" y2="996"/>
    <line class="cls-7" x1="1544.84" y1="996" x2="1566.73" y2="996"/>
  </g>
  <g>
    <rect class="cls-7" x="225" y="759" width="143" height="86.14" rx="12" ry="12"/>
    <polygon class="cls-7" points="328.11 802.01 270.83 773.72 270.83 830.29 328.11 802.01"/>
  </g>
  <polygon class="cls-7" points="1094.37 701.13 1106.38 735.42 1076.51 714.74 1047.62 736.76 1058.05 701.96 1028.18 681.28 1064.5 680.46 1074.93 645.66 1086.94 679.94 1123.26 679.11 1094.37 701.13"/>
  <path class="cls-10" d="M1672.79,357.53c10.42,0,22.01,5.86,32.65,16.49l4.24,4.24,4.24-4.24c9.39-9.39,19.86-14.57,29.47-14.57,9.53,0,17.59,5.17,21.04,13.5,4.78,11.53,0,26.04-12.77,38.81l-42.13,42.13-41.98-41.98c-7.6-7.6-12.83-15.76-15.13-23.62-1.94-6.62-1.81-12.91.38-18.19,3.26-7.87,10.73-12.57,19.99-12.57M1672.79,351.53c-27.08,0-41.4,32.71-9.48,64.62l46.23,46.23,46.37-46.37c30.07-30.07,14.27-62.55-12.51-62.55-10.28,0-22.17,4.78-33.71,16.32-12.91-12.91-25.94-18.25-36.89-18.25h0Z"/>
  <polygon class="cls-7" points="365.71 374.45 377.73 408.74 347.86 388.06 318.96 410.08 329.4 375.28 299.53 354.61 335.85 353.78 346.28 318.98 358.29 353.26 394.61 352.43 365.71 374.45"/>
  <path class="cls-6" d="M490.42,165.26c-22.53,22.53-59.05,22.53-81.57,0-18.02-18.02-18.02-47.24,0-65.26,14.42-14.42,37.79-14.42,52.21,0,11.53,11.53,11.53,30.23,0,41.76-9.23,9.23-24.19,9.23-33.41,0-7.38-7.38-7.38-19.35,0-26.73,5.9-5.9,15.48-5.9,21.38,0,4.72,4.72,4.72,12.38,0,17.11-3.78,3.78-9.91,3.78-13.69,0-3.02-3.02-3.02-7.93,0-10.95,2.42-2.42,6.34-2.42,8.76,0,1.93,1.93,1.93,5.07,0,7.01-1.55,1.55-4.06,1.55-5.61,0-1.24-1.24-1.24-3.25,0-4.48.99-.99,2.6-.99,3.59,0,.79.79.79,2.08,0,2.87-.63.63-1.66.63-2.3,0-.51-.51-.51-1.33,0-1.84.41-.41,1.06-.41,1.47,0,.32.32.32.85,0,1.18"/>
  <path class="cls-6" d="M1561.42,306.26c-22.53,22.53-59.05,22.53-81.57,0-18.02-18.02-18.02-47.24,0-65.26,14.42-14.42,37.79-14.42,52.21,0,11.53,11.53,11.53,30.23,0,41.76-9.23,9.23-24.19,9.23-33.41,0-7.38-7.38-7.38-19.35,0-26.73,5.9-5.9,15.48-5.9,21.38,0,4.72,4.72,4.72,12.38,0,17.11-3.78,3.78-9.91,3.78-13.69,0-3.02-3.02-3.02-7.93,0-10.95,2.42-2.42,6.34-2.42,8.76,0,1.93,1.93,1.93,5.07,0,7.01-1.55,1.55-4.06,1.55-5.61,0-1.24-1.24-1.24-3.25,0-4.48.99-.99,2.6-.99,3.59,0,.79.79.79,2.08,0,2.87-.63.63-1.66.63-2.3,0-.51-.51-.51-1.33,0-1.84.41-.41,1.06-.41,1.47,0,.32.32.32.85,0,1.18"/>
  <g>
    <line class="cls-7" x1="422" y1="626.79" x2="463" y2="667.79"/>
    <line class="cls-7" x1="463" y1="626.67" x2="422" y2="667.67"/>
  </g>
  <g>
    <rect class="cls-7" x="944.88" y="102.67" width="146.24" height="66"/>
    <ellipse class="cls-7" cx="1017.83" cy="135.67" rx="37.17" ry="20.15"/>
    <line class="cls-7" x1="953.22" y1="135.67" x2="975.1" y2="135.67"/>
    <line class="cls-7" x1="1064.72" y1="135.67" x2="1086.61" y2="135.67"/>
  </g>
  <g>
    <ellipse class="cls-5" cx="1174" cy="933.67" rx="59.36" ry="58.25"/>
    <g>
      <path class="cls-10" d="M1173.99,894.71c31.35,0,56.85,20.76,56.85,46.28s-25.5,46.28-56.85,46.28-56.85-20.76-56.85-46.28,25.5-46.28,56.85-46.28M1173.99,890.71c-33.61,0-60.85,22.51-60.85,50.28s27.25,50.28,60.85,50.28,60.85-22.51,60.85-50.28-27.25-50.28-60.85-50.28h0Z"/>
      <path class="cls-8" d="M1173.99,876.21v115.03"/>
      <path class="cls-10" d="M1173.99,886.02c26.94,0,48.85,21.4,48.85,47.71s-21.92,47.71-48.85,47.71-48.85-21.4-48.85-47.71,21.92-47.71,48.85-47.71M1173.99,874.02c-33.61,0-60.85,26.73-60.85,59.71s27.25,59.71,60.85,59.71,60.85-26.73,60.85-59.71-27.25-59.71-60.85-59.71h0Z"/>
    </g>
    <g>
      <path class="cls-10" d="M1147.55,883.51c6.14,3.9,10.46,10.42,11.51,17.6,1.09,7.5-1.65,15.35-6.92,20.76-2.95,3.03-6.43,5.47-9.74,8.08s-6.46,5.7-9.08,9.2c-5.09,6.79-8.42,15.43-8.49,23.96-.07,9.52,5.18,19.36,14.93,21.84,3.74.95,5.34-4.83,1.6-5.79-7.45-1.89-10.78-9.63-10.5-16.95.3-7.85,3.86-15.75,8.97-21.65,5.46-6.31,13.27-10.09,18.48-16.62s7.81-15.18,6.66-23.64c-1.23-9.04-6.71-17.12-14.38-21.99-3.27-2.07-6.28,3.12-3.03,5.18h0Z"/>
      <path class="cls-10" d="M1197.4,878.03c-6.78,4.3-11.9,11.13-13.82,18.96s-.44,16.97,4.11,23.95c4.71,7.22,12.41,11.14,18.39,17.1,5.64,5.62,9.54,13.02,10.77,20.9s-1.65,17.76-10.22,19.94c-3.74.95-2.16,6.74,1.6,5.79,8.53-2.17,13.75-10.12,14.74-18.51s-1.97-17.64-6.56-24.79c-2.27-3.54-5.04-6.78-8.21-9.55s-6.82-5.24-10.06-8.08c-3.03-2.66-5.49-5.65-7.2-9.32-1.57-3.38-2.29-7.14-2.22-10.84.16-8.22,4.77-15.97,11.71-20.37,3.25-2.06.25-7.26-3.03-5.18h0Z"/>
    </g>
  </g>
  <rect class="cls-7" x="1679.16" y="877.4" width="143.67" height="45.54" transform="translate(3502 1800.35) rotate(-180)"/>
  <circle class="cls-1" cx="1798.98" cy="922.94" r="15.72"/>
  <circle class="cls-1" cx="1704.64" cy="922.94" r="15.72"/>
  <polygon class="cls-7" points="1720.37 877.4 1795.73 877.4 1770.79 848.67 1720.37 848.67 1720.37 877.4"/>
  <g>
    <g>
      <path class="cls-10" d="M556.34,380.9c-20.25-2.25-36.05-19.46-36.05-40.3s15.8-38.05,36.05-40.3v80.6Z"/>
      <path class="cls-10" d="M551.84,305.69v69.82c-15.54-4.01-27.05-18.14-27.05-34.91s11.51-30.9,27.05-34.91M560.84,295.55c-24.88,0-45.05,20.17-45.05,45.05s20.17,45.05,45.05,45.05v-90.09h0Z"/>
    </g>
    <g>
      <path class="cls-10" d="M649.66,300.3c20.25,2.25,36.05,19.46,36.05,40.3s-15.8,38.05-36.05,40.3v-80.6Z"/>
      <path class="cls-10" d="M654.16,305.69c15.54,4.01,27.05,18.14,27.05,34.91s-11.51,30.9-27.05,34.91v-69.82M645.16,295.55v90.09c24.88,0,45.05-20.17,45.05-45.05s-20.17-45.05-45.05-45.05h0Z"/>
    </g>
    <g>
      <rect class="cls-11" x="565.34" y="296.2" width="5.94" height="90.25"/>
      <path class="cls-10" d="M571.9,291.7h-7.19c-2.13,0-3.88,1.74-3.88,3.88v91.5c0,2.13,1.74,3.88,3.88,3.88h7.19c2.13,0,3.88-1.74,3.88-3.88v-91.5c0-2.13-1.74-3.88-3.88-3.88h0Z"/>
    </g>
    <g>
      <rect class="cls-11" x="637.13" y="296.2" width="5.94" height="90.25"/>
      <path class="cls-10" d="M643.69,291.7h-7.19c-2.13,0-3.88,1.74-3.88,3.88v91.5c0,2.13,1.74,3.88,3.88,3.88h7.19c2.13,0,3.88-1.74,3.88-3.88v-91.5c0-2.13-1.74-3.88-3.88-3.88h0Z"/>
    </g>
    <path class="cls-6" d="M537.96,309.28c0-96.89,129.6-96.89,129.6,0"/>
  </g>
  <g>
    <line class="cls-7" x1="1199.5" y1="111.23" x2="1240.5" y2="152.23"/>
    <line class="cls-7" x1="1240.5" y1="111.11" x2="1199.5" y2="152.11"/>
  </g>
  <g>
    <line class="cls-7" x1="555.5" y1="802.23" x2="596.5" y2="843.23"/>
    <line class="cls-7" x1="596.5" y1="802.11" x2="555.5" y2="843.11"/>
  </g>
  <rect class="cls-3" x="1697.54" y="131.04" width="92.69" height="125.5"/>
  <ellipse class="cls-5" cx="1744.09" cy="160.93" rx="17.44" ry="17.97"/>
  <ellipse class="cls-5" cx="1743.98" cy="221.02" rx="28.08" ry="28.93"/>
  <g>
    <ellipse class="cls-3" cx="1744.05" cy="160.9" rx="6.33" ry="6.52"/>
    <ellipse class="cls-3" cx="1744.02" cy="221.06" rx="9.26" ry="9.54"/>
  </g>
  <g>
    <ellipse class="cls-3" cx="1799.54" cy="103.33" rx="9" ry="11.37"/>
    <ellipse class="cls-3" cx="1834.7" cy="96.19" rx="10.47" ry="13.22"/>
    <rect class="cls-3" x="1803.72" y="62.88" width="4.81" height="40.45"/>
    <rect class="cls-3" x="1839.1" y="52.83" width="4.81" height="40.45"/>
    <polygon class="cls-3" points="1846.04 55.24 1805.48 70.06 1802.36 56.43 1842.91 41.61 1846.04 55.24"/>
  </g>
  <polygon class="cls-7" points="773.71 92.45 785.73 126.74 755.86 106.06 726.96 128.08 737.4 93.28 707.53 72.61 743.85 71.78 754.28 36.98 766.29 71.26 802.61 70.43 773.71 92.45"/>
  <path class="cls-10" d="M70.79,259.53c10.42,0,22.01,5.86,32.65,16.49l4.24,4.24,4.24-4.24c9.39-9.39,19.86-14.57,29.47-14.57,9.53,0,17.59,5.17,21.04,13.5,4.78,11.53,0,26.04-12.77,38.81l-42.13,42.13-41.98-41.98c-7.6-7.6-12.83-15.76-15.13-23.62-1.94-6.62-1.81-12.91.38-18.19,3.26-7.87,10.73-12.57,19.99-12.57M70.79,253.53c-27.08,0-41.4,32.71-9.48,64.62l46.23,46.23,46.37-46.37c30.07-30.07,14.27-62.55-12.51-62.55-10.28,0-22.17,4.78-33.71,16.32-12.91-12.91-25.94-18.25-36.89-18.25h0Z"/>
  <path class="cls-10" d="M1344.79,785.53c10.42,0,22.01,5.86,32.65,16.49l4.24,4.24,4.24-4.24c9.39-9.39,19.86-14.57,29.47-14.57,9.53,0,17.59,5.17,21.04,13.5,4.78,11.53,0,26.04-12.77,38.81l-42.13,42.13-41.98-41.98c-7.6-7.6-12.83-15.76-15.13-23.62-1.94-6.62-1.81-12.91.38-18.19,3.26-7.87,10.73-12.57,19.99-12.57M1344.79,779.53c-27.08,0-41.4,32.71-9.48,64.62l46.23,46.23,46.37-46.37c30.07-30.07,14.27-62.55-12.51-62.55-10.28,0-22.17,4.78-33.71,16.32-12.91-12.91-25.94-18.25-36.89-18.25h0Z"/>
  <path class="cls-6" d="M602.42,543.26c-22.53,22.53-59.05,22.53-81.57,0-18.02-18.02-18.02-47.24,0-65.26,14.42-14.42,37.79-14.42,52.21,0,11.53,11.53,11.53,30.23,0,41.76-9.23,9.23-24.19,9.23-33.41,0-7.38-7.38-7.38-19.35,0-26.73,5.9-5.9,15.48-5.9,21.38,0,4.72,4.72,4.72,12.38,0,17.11-3.78,3.78-9.91,3.78-13.69,0-3.02-3.02-3.02-7.93,0-10.95,2.42-2.42,6.34-2.42,8.76,0,1.93,1.93,1.93,5.07,0,7.01-1.55,1.55-4.06,1.55-5.61,0-1.24-1.24-1.24-3.25,0-4.48.99-.99,2.6-.99,3.59,0,.79.79.79,2.08,0,2.87-.63.63-1.66.63-2.3,0-.51-.51-.51-1.33,0-1.84.41-.41,1.06-.41,1.47,0,.32.32.32.85,0,1.18"/>
  <g>
    <rect class="cls-7" x="1734.5" y="614.6" width="143" height="86.14" rx="12" ry="12"/>
    <polygon class="cls-7" points="1837.61 657.6 1780.33 629.32 1780.33 685.88 1837.61 657.6"/>
  </g>
  <g>
    <ellipse class="cls-2" cx="1445.64" cy="102.92" rx="56.47" ry="32.35"/>
    <ellipse class="cls-9" cx="1524.33" cy="83.15" rx="58.51" ry="29.47"/>
    <polygon class="cls-2" points="1389.36 151.67 1423.42 132.25 1404.8 118.61 1389.36 151.67"/>
    <polygon class="cls-2" points="1592.64 129.29 1558.58 109.87 1577.2 96.22 1592.64 129.29"/>
    <ellipse class="cls-5" cx="1420" cy="103.06" rx="10.13" ry="9.2"/>
    <ellipse class="cls-5" cx="1445.72" cy="103.06" rx="10.13" ry="9.2"/>
    <ellipse class="cls-5" cx="1471.44" cy="103.06" rx="10.13" ry="9.2"/>
  </g>
  <g>
    <g>
      <g>
        <path class="cls-10" d="M479.93,1021.33c-27.46,0-49.88-21.97-50.6-49.25h101.2c-.73,27.28-23.15,49.25-50.6,49.25h0Z"/>
        <path class="cls-10" d="M528.76,973.78c-1.59,25.55-22.88,45.86-48.83,45.86s-47.24-20.31-48.83-45.86h97.66M532.24,970.39h-104.62c0,.11,0,.21,0,.32,0,28.9,23.42,52.32,52.32,52.32s52.32-23.42,52.32-52.32c0-.11,0-.21,0-.32h0Z"/>
      </g>
      <g>
        <path class="cls-10" d="M584.56,1021.33c-27.46,0-49.88-21.97-50.6-49.25h101.2c-.73,27.28-23.15,49.25-50.6,49.25h0Z"/>
        <path class="cls-10" d="M633.39,973.78c-1.59,25.55-22.88,45.86-48.83,45.86s-47.24-20.31-48.83-45.86h97.66M636.87,970.39h-104.62c0,.11,0,.21,0,.32,0,28.9,23.42,52.32,52.32,52.32s52.32-23.42,52.32-52.32c0-.11,0-.21,0-.32h0Z"/>
      </g>
    </g>
    <line class="cls-9" x1="628.32" y1="979.92" x2="677.24" y2="908.22"/>
    <line class="cls-9" x1="430.76" y1="973.94" x2="479.68" y2="902.25"/>
  </g>
  <polygon class="cls-7" points="1244.4 340.86 1260.42 386.6 1220.57 359.02 1182.02 388.39 1195.94 341.97 1156.09 314.38 1204.55 313.28 1218.47 266.85 1234.49 312.59 1282.95 311.49 1244.4 340.86"/>
</svg>